<svg width="116" height="116" viewBox="0 0 116 116" fill="none" xmlns="http://www.w3.org/2000/svg">
<g filter="url(#filter0_d)">
<path d="M54 0C24.1773 0 0 24.176 0 54C0 83.824 24.1773 108 54 108C83.8227 108 108 83.824 108 54C108 24.176 83.8227 0 54 0ZM54 98.1818C29.5994 98.1818 9.81818 78.4006 9.81818 54C9.81818 29.5994 29.5994 9.81818 54 9.81818C78.4006 9.81818 98.1818 29.5994 98.1818 54C98.1818 78.4006 78.4006 98.1818 54 98.1818ZM67.0422 40.7086L49.6849 58.0647L42.7435 51.1233C40.8265 49.2063 37.719 49.2063 35.8008 51.1233C33.8838 53.0403 33.8838 56.149 35.8008 58.0672L46.213 68.4757C48.13 70.3927 51.2399 70.3927 53.1556 68.4757L73.9837 47.6489C75.9007 45.7319 75.9031 42.6244 73.9849 40.7062C72.0691 38.7929 68.9592 38.7929 67.0422 40.7086Z" transform="translate(4)" fill="#7AB51D"/>
</g>
<defs>
<filter id="filter0_d" x="0" y="0" width="116" height="116" filterUnits="userSpaceOnUse" color-interpolation-filters="sRGB">
<feFlood flood-opacity="0" result="BackgroundImageFix"/>
<feColorMatrix in="SourceAlpha" type="matrix" values="0 0 0 0 0 0 0 0 0 0 0 0 0 0 0 0 0 0 255 0"/>
<feOffset dy="4"/>
<feGaussianBlur stdDeviation="2"/>
<feColorMatrix type="matrix" values="0 0 0 0 0 0 0 0 0 0 0 0 0 0 0 0 0 0 0.05 0"/>
<feBlend mode="normal" in2="BackgroundImageFix" result="effect1_dropShadow"/>
<feBlend mode="normal" in="SourceGraphic" in2="effect1_dropShadow" result="shape"/>
</filter>
</defs>
</svg>
