<svg width="16" height="16" viewBox="0 0 16 16" fill="none" xmlns="http://www.w3.org/2000/svg">
<path fill-rule="evenodd" clip-rule="evenodd" d="M5.33333 0H1.33333C0.596 0 0 0.596 0 1.33333V5.33333C0 6.06933 0.596 6.66667 1.33333 6.66667H5.33333C6.07067 6.66667 6.66667 6.06933 6.66667 5.33333V1.33333C6.66667 0.597333 6.07067 0 5.33333 0ZM14.6667 0H10.6667C9.92933 0 9.33333 0.596 9.33333 1.33333V5.33333C9.33333 6.06933 9.92933 6.66667 10.6667 6.66667H14.6667C15.404 6.66667 16 6.06933 16 5.33333V1.33333C16 0.597333 15.404 0 14.6667 0ZM5.33333 9.33333H1.33333C0.596 9.33333 0 9.92933 0 10.6667V14.6667C0 15.4027 0.596 16 1.33333 16H5.33333C6.07067 16 6.66667 15.4027 6.66667 14.6667V10.6667C6.66667 9.93067 6.07067 9.33333 5.33333 9.33333ZM14.6667 9.33333H10.6667C9.92933 9.33333 9.33333 9.92933 9.33333 10.6667V14.6667C9.33333 15.4027 9.92933 16 10.6667 16H14.6667C15.404 16 16 15.4027 16 14.6667V10.6667C16 9.93067 15.404 9.33333 14.6667 9.33333Z" fill="white"/>
</svg>
