<svg width="35" height="38" viewBox="0 0 35 38" fill="none" xmlns="http://www.w3.org/2000/svg">
<path d="M0 8.204C0 8.064 0.0513333 7.91933 0.154 7.77C0.266 7.62067 0.392 7.546 0.532 7.546C0.578667 7.546 0.611333 7.55533 0.63 7.574C0.900667 7.854 1.29267 8.12467 1.806 8.386C2.32867 8.638 2.85133 8.806 3.374 8.89V5.936C3.00067 5.92667 2.68333 5.908 2.422 5.88C2.17 5.852 1.89 5.796 1.582 5.712C1.28333 5.628 1.04067 5.51133 0.854 5.362C0.676667 5.21267 0.522667 5.00267 0.392 4.732C0.270667 4.452 0.21 4.12533 0.21 3.752C0.21 3.024 0.513333 2.45 1.12 2.03C1.736 1.61 2.48733 1.372 3.374 1.316V0.378C3.374 0.126 3.55133 0 3.906 0C4.046 0 4.16267 0.0326668 4.256 0.0980004C4.35867 0.163333 4.41 0.256667 4.41 0.378V1.344C5.03533 1.40933 5.60467 1.56333 6.118 1.806C6.63133 2.03933 7.01867 2.34267 7.28 2.716C7.28933 2.73467 7.294 2.758 7.294 2.786C7.294 2.898 7.21467 3.01467 7.056 3.136C6.90667 3.248 6.77133 3.304 6.65 3.304C6.63133 3.304 6.57533 3.28067 6.482 3.234C5.87533 2.73933 5.18467 2.45 4.41 2.366V5.04C4.86733 5.04933 5.25 5.082 5.558 5.138C5.87533 5.194 6.19267 5.30133 6.51 5.46C6.83667 5.60933 7.084 5.84267 7.252 6.16C7.42 6.47733 7.504 6.87867 7.504 7.364C7.504 8.99733 6.47267 9.86533 4.41 9.968V10.948C4.41 11.0693 4.35867 11.1627 4.256 11.228C4.15333 11.3027 4.032 11.34 3.892 11.34C3.54667 11.34 3.374 11.2093 3.374 10.948V9.94C1.98333 9.78133 0.891333 9.29133 0.098 8.47C0.0326667 8.40467 0 8.316 0 8.204ZM1.232 3.822C1.232 4.06467 1.28333 4.27 1.386 4.438C1.498 4.59667 1.66133 4.718 1.876 4.802C2.09067 4.87667 2.31 4.93267 2.534 4.97C2.758 4.998 3.038 5.01667 3.374 5.026V2.338C2.77667 2.38467 2.268 2.52933 1.848 2.772C1.43733 3.01467 1.232 3.36467 1.232 3.822ZM4.41 8.932C5.782 8.848 6.468 8.29733 6.468 7.28C6.468 7.028 6.41667 6.818 6.314 6.65C6.21133 6.47267 6.05733 6.342 5.852 6.258C5.64667 6.16467 5.432 6.09933 5.208 6.062C4.99333 6.02467 4.72733 5.99667 4.41 5.978V8.932Z" transform="translate(14 22)" fill="#4A4A4A"/>
<path d="M5.62504 13.3V2.38987L8.93319 6.09495C9.17726 6.3683 9.57289 6.3683 9.81695 6.09495C10.061 5.8216 10.061 5.37833 9.81695 5.10498L5.44192 0.205011C5.19785 -0.0683371 4.80207 -0.0683371 4.55816 0.205011L0.183127 5.10498C0.0610944 5.24165 0 5.42068 0 5.60005C0 5.77908 0.0610944 5.95827 0.183127 6.09495C0.427191 6.3683 0.822975 6.3683 1.06688 6.09495L4.37503 2.38987V13.3C4.37503 13.6866 4.65488 14 5.00004 14C5.3452 14 5.62504 13.6866 5.62504 13.3Z" transform="translate(23) scale(-1 1)" fill="#4A4A4A"/>
<path fill-rule="evenodd" clip-rule="evenodd" d="M1.19995 7.56652V12.4022C3.78809 12.4588 5.64282 13.6121 6.78455 15.0671C7.70142 16.2357 8.17529 17.6253 8.17468 18.8H27.3998C27.3992 17.6253 27.873 16.2357 28.7899 15.0671C29.8453 13.7221 31.51 12.6349 33.8 12.4335V7.59782C31.2119 7.54123 29.3572 6.38794 28.2155 4.93287C27.2986 3.76428 26.8247 2.37473 26.8253 1.2H7.60022C7.60083 2.37473 7.12695 3.76428 6.21008 4.93287C5.15466 6.27792 3.48999 7.3651 1.19995 7.56652ZM33.8 13.6389C31.9091 13.8334 30.5774 14.733 29.734 15.8079C28.9457 16.8126 28.6002 17.9448 28.6002 18.8H33.8V13.6389ZM1.19995 18.8V13.6025C3.39868 13.658 4.91406 14.6273 5.84045 15.8079C6.62878 16.8126 6.97424 17.9448 6.97424 18.8H1.19995ZM1.19995 6.36108C3.09094 6.16664 4.42261 5.26699 5.26599 4.19213C6.05432 3.18736 6.39978 2.05522 6.39978 1.2H1.19995V6.36108ZM33.8 1.2V6.39749C31.6013 6.34197 30.0859 5.37274 29.1595 4.19213C28.3712 3.18736 28.0258 2.05522 28.0258 1.2H33.8ZM1 0C0.447754 0 0 0.447716 0 1V19C0 19.5523 0.447754 20 1 20H34C34.5522 20 35 19.5523 35 19V1C35 0.447716 34.5522 0 34 0H1Z" transform="translate(0 18)" fill="#4A4A4A"/>
</svg>
