<svg width="22" height="22" viewBox="0 0 22 22" fill="none" xmlns="http://www.w3.org/2000/svg">
<path d="M20.4286 0H1.57143C0.707143 0 0 0.707143 0 1.57143V20.4286C0 21.2929 0.707143 22 1.57143 22H20.4286C21.2929 22 22 21.2929 22 20.4286V1.57143C22 0.707143 21.2929 0 20.4286 0ZM11 4.32143C12.9486 4.32143 14.5357 5.90857 14.5357 7.85714C14.5357 9.80571 12.9486 11.3929 11 11.3929C9.05143 11.3929 7.46429 9.80571 7.46429 7.85714C7.46429 5.90857 9.05143 4.32143 11 4.32143ZM18.0714 18.8571H3.92857V17.6786C3.92857 15.3214 8.64286 14.1429 11 14.1429C13.3571 14.1429 18.0714 15.3214 18.0714 17.6786V18.8571Z" fill="#C4C4C4"/>
</svg>
