<svg width="117" height="118" viewBox="0 0 117 118" fill="none" xmlns="http://www.w3.org/2000/svg">
<g filter="url(#filter0_d)">
<path d="M48.75 70.4167H59.5833V81.25H48.75V70.4167ZM48.75 27.0833H59.5833V59.5833H48.75V27.0833ZM54.1125 0C24.2125 0 0 24.2667 0 54.1667C0 84.0667 24.2125 108.333 54.1125 108.333C84.0667 108.333 108.333 84.0667 108.333 54.1667C108.333 24.2667 84.0667 0 54.1125 0ZM54.1667 97.5C30.225 97.5 10.8333 78.1083 10.8333 54.1667C10.8333 30.225 30.225 10.8333 54.1667 10.8333C78.1083 10.8333 97.5 30.225 97.5 54.1667C97.5 78.1083 78.1083 97.5 54.1667 97.5Z" transform="translate(4 0.833328)" fill="white"/>
</g>
<defs>
<filter id="filter0_d" x="0" y="0.833328" width="116.333" height="116.333" filterUnits="userSpaceOnUse" color-interpolation-filters="sRGB">
<feFlood flood-opacity="0" result="BackgroundImageFix"/>
<feColorMatrix in="SourceAlpha" type="matrix" values="0 0 0 0 0 0 0 0 0 0 0 0 0 0 0 0 0 0 255 0"/>
<feOffset dy="4"/>
<feGaussianBlur stdDeviation="2"/>
<feColorMatrix type="matrix" values="0 0 0 0 0 0 0 0 0 0 0 0 0 0 0 0 0 0 0.05 0"/>
<feBlend mode="normal" in2="BackgroundImageFix" result="effect1_dropShadow"/>
<feBlend mode="normal" in="SourceGraphic" in2="effect1_dropShadow" result="shape"/>
</filter>
</defs>
</svg>
