<svg xmlns="http://www.w3.org/2000/svg" viewBox="0 0 234.67 94.25"><defs><style>.cls-1{fill:#fff;}</style></defs><title>Asset 2</title><g id="Layer_2" data-name="Layer 2"><g id="Camada_1" data-name="Camada 1"><path class="cls-1" d="M48.67,0A47.13,47.13,0,1,0,94.22,45.58,47.14,47.14,0,0,0,48.67,0Zm-.13,64.47A17.42,17.42,0,1,1,64.49,48.54,17.44,17.44,0,0,1,48.54,64.49ZM6.82,47.12A40.24,40.24,0,0,1,23.28,14.63a19,19,0,0,0-.37,3.08c0,.4,0,2.35,0,2.35V48h0a16.75,16.75,0,0,1-12.8,15A40.15,40.15,0,0,1,6.82,47.12ZM64.55,83.48a40.33,40.33,0,0,1-51.1-14.21v0a23.25,23.25,0,0,0,12.77-9.89A24.22,24.22,0,0,0,64.55,64Zm4.22-47.24a24.21,24.21,0,0,0-39-6V18.35h0a10.76,10.76,0,0,1,8.37-10.5h0a40.77,40.77,0,0,1,9-1A40.29,40.29,0,0,1,83.69,30.17c-.52-.05-1-.08-1.58-.08A17.52,17.52,0,0,0,68.77,36.24Zm2.6,43.09V47.59A10.74,10.74,0,0,1,82.11,36.93a10.62,10.62,0,0,1,4.22.88h0a40.33,40.33,0,0,1-15,41.52Z"/><path class="cls-1" d="M111.79,64.1a13.06,13.06,0,0,1-3.86-1.62c-1-.65-1.46-1.3-1.46-1.95a4.73,4.73,0,0,1,.94-2.3c.63-1,1.18-1.46,1.66-1.46a7.65,7.65,0,0,1,1.29.68,15.75,15.75,0,0,0,2.67,1.2,10.1,10.1,0,0,0,3.37.52q5.66,0,5.65-4.54a3.8,3.8,0,0,0-1.43-3.15,15.88,15.88,0,0,0-4.8-2.24,14.17,14.17,0,0,1-6.56-3.6,8.87,8.87,0,0,1-2-6.14,8.91,8.91,0,0,1,3-7,11.58,11.58,0,0,1,8-2.7,20.67,20.67,0,0,1,6.17.88c1.86.59,2.79,1.31,2.79,2.18a5.5,5.5,0,0,1-.81,2.46c-.54,1-1.05,1.5-1.52,1.5a17.76,17.76,0,0,1-1.76-.82,9.16,9.16,0,0,0-4-.74,6.57,6.57,0,0,0-3.7.94A3,3,0,0,0,114,38.79,4,4,0,0,0,115.4,42a13.72,13.72,0,0,0,4.31,2.24,25.1,25.1,0,0,1,5.36,2.4,7.58,7.58,0,0,1,2.79,3,10.68,10.68,0,0,1,.87,4.61,9.81,9.81,0,0,1-1.52,5.39A10.21,10.21,0,0,1,123,63.42a13.5,13.5,0,0,1-6.07,1.33A19.7,19.7,0,0,1,111.79,64.1Z"/><path class="cls-1" d="M136.26,22.82V19c0-1.21,1.17-1.82,3.51-1.82s3.37.61,3.37,1.82v3.83c0,1.21-1.16,1.82-3.5,1.82S136.26,24,136.26,22.82Zm.13,39.86v-31c0-1.08,1-1.62,3-1.62H140c2,0,3,.54,3,1.62v31c0,1.08-1,1.62-3,1.62h-.65C137.39,64.3,136.39,63.76,136.39,62.68Z"/><path class="cls-1" d="M155.8,64.1a13.06,13.06,0,0,1-3.86-1.62c-1-.65-1.46-1.3-1.46-1.95a4.73,4.73,0,0,1,.94-2.3c.63-1,1.18-1.46,1.66-1.46a7.65,7.65,0,0,1,1.29.68,15.75,15.75,0,0,0,2.67,1.2,10.1,10.1,0,0,0,3.37.52q5.66,0,5.65-4.54a3.8,3.8,0,0,0-1.43-3.15,15.88,15.88,0,0,0-4.8-2.24,14.17,14.17,0,0,1-6.56-3.6,8.87,8.87,0,0,1-2-6.14,9,9,0,0,1,3.05-7,11.6,11.6,0,0,1,8-2.7,20.67,20.67,0,0,1,6.17.88c1.86.59,2.79,1.31,2.79,2.18a5.5,5.5,0,0,1-.81,2.46c-.54,1-1.05,1.5-1.52,1.5a17.76,17.76,0,0,1-1.76-.82,9.16,9.16,0,0,0-4-.74,6.57,6.57,0,0,0-3.7.94A3,3,0,0,0,158,38.79a4,4,0,0,0,1.4,3.21,13.83,13.83,0,0,0,4.31,2.24,25.1,25.1,0,0,1,5.36,2.4,7.58,7.58,0,0,1,2.79,3,10.67,10.67,0,0,1,.88,4.61,9.82,9.82,0,0,1-1.53,5.39A10.21,10.21,0,0,1,167,63.42a13.5,13.5,0,0,1-6.07,1.33A19.7,19.7,0,0,1,155.8,64.1Z"/><path class="cls-1" d="M191,63.36a14.88,14.88,0,0,1-4.51-3.61,15.34,15.34,0,0,1-1,3.51,1.26,1.26,0,0,1-.75.81,4.38,4.38,0,0,1-1.59.23h-.39c-1.64,0-2.47-.54-2.47-1.62V16.91c0-1.08,1-1.62,2.93-1.62h.71c2,0,3,.54,3,1.62V32.75a16,16,0,0,1,3.89-2.21,12.69,12.69,0,0,1,4.61-.78,11.67,11.67,0,0,1,9.7,4.61q3.61,4.62,3.61,12.79a25.28,25.28,0,0,1-1.53,9.15,13.81,13.81,0,0,1-4.35,6.14,10.49,10.49,0,0,1-6.59,2.17A11.61,11.61,0,0,1,191,63.36ZM200,55.83q1.85-3.15,1.85-9,0-5.58-2-8.51a6.79,6.79,0,0,0-6-2.92,11.82,11.82,0,0,0-3.74.62,10.15,10.15,0,0,0-3.27,1.78V54.69a13.42,13.42,0,0,0,3.7,3.15A8.19,8.19,0,0,0,194.69,59,5.87,5.87,0,0,0,200,55.83Z"/><path class="cls-1" d="M217.34,62.68V40.54a35.21,35.21,0,0,0-.39-6.23c-.26-1.3-.39-2-.39-2.21,0-.6.54-1,1.62-1.3a12.86,12.86,0,0,1,3-.39,1.44,1.44,0,0,1,1.39.91,9.5,9.5,0,0,1,.65,2c.15.69.25,1.17.29,1.43q3.31-4.94,7.41-4.94a4.13,4.13,0,0,1,2.82.85,2.6,2.6,0,0,1,.94,2,8.72,8.72,0,0,1-.45,2.6c-.31,1-.65,1.43-1,1.43a4.72,4.72,0,0,1-1.33-.33,6.36,6.36,0,0,0-2.11-.32,5.22,5.22,0,0,0-3.54,1.33A12.24,12.24,0,0,0,224,39.76V62.68c0,1.08-1,1.62-2.92,1.62h-.72C218.33,64.3,217.34,63.76,217.34,62.68Z"/></g></g></svg>