<svg width="92" height="29" viewBox="0 0 92 29" fill="none" xmlns="http://www.w3.org/2000/svg">
<path d="M5.05226 16.843C3.19667 16.843 1.79699 16.6947 0.853195 16.3979C0.165348 16.1949 -0.106592 15.7654 0.0373763 15.1095L0.205339 14.1491C0.333311 13.54 0.701229 13.2355 1.30909 13.2355C1.50105 13.2355 2.00494 13.3526 2.82076 13.5869C3.63658 13.8055 4.51638 13.9148 5.46017 13.9148H5.96406C7.1318 13.9148 7.97961 13.7821 8.50749 13.5166C9.05137 13.2511 9.3793 12.8372 9.49127 12.275L9.51527 12.1813C9.64324 11.5723 9.50727 11.1272 9.10736 10.8461C8.72344 10.5493 7.77166 10.1901 6.252 9.76849C4.23644 9.19065 2.88474 8.57378 2.1969 7.91786C1.52505 7.26194 1.31709 6.28587 1.57303 4.98966L1.59703 4.87253C1.80498 3.81057 2.12491 2.97505 2.55682 2.36599C3.00472 1.75692 3.69256 1.28841 4.62036 0.960451C5.54815 0.616875 6.78788 0.445087 8.33953 0.445087H9.13135C11.0989 0.445087 12.5386 0.601257 13.4504 0.913599C14.1382 1.11662 14.4182 1.54609 14.2902 2.20201L14.0983 3.13903C13.9703 3.76372 13.5944 4.07606 12.9705 4.07606C12.7945 4.07606 12.3066 3.95893 11.5068 3.72467C10.707 3.49042 9.8272 3.37329 8.86741 3.37329H8.36353C7.21178 3.37329 6.38796 3.49823 5.89208 3.7481C5.39618 3.99797 5.10025 4.3884 5.00427 4.91938L4.98028 5.03651C4.8843 5.56749 5.02827 5.95011 5.41218 6.18436C5.7961 6.403 6.6999 6.70754 8.12358 7.09796C10.2351 7.6758 11.6188 8.30048 12.2747 8.97201C12.9465 9.62793 13.1705 10.6508 12.9465 12.0408L12.9225 12.1813C12.6506 13.8055 12.0027 14.9924 10.9789 15.742C9.95517 16.476 8.26755 16.843 5.91607 16.843H5.05226Z" transform="translate(32.2217 8.64795)" fill="#003641"/>
<path d="M20.9502 2.24886C20.8223 2.88916 20.4303 3.20931 19.7745 3.20931H18.4788C18.1748 3.20931 17.9349 3.1078 17.7589 2.90478C17.599 2.70176 17.551 2.44407 17.615 2.13173L17.8309 0.960451C17.9589 0.32015 18.3508 0 19.0067 0H20.3024C20.6223 0 20.8622 0.10932 21.0222 0.327959C21.1822 0.530981 21.2302 0.788663 21.1662 1.101L20.9502 2.24886ZM18.5028 15.7889C18.3748 16.4136 17.9909 16.7259 17.351 16.7259H16.0553C15.7354 16.7259 15.4954 16.6244 15.3355 16.4214C15.1755 16.2183 15.1275 15.9607 15.1915 15.6483L17.0631 5.29419C17.1911 4.65389 17.575 4.33374 18.2148 4.33374H19.5345C19.8385 4.33374 20.0704 4.44306 20.2304 4.6617C20.3904 4.86472 20.4383 5.1224 20.3744 5.43474L18.5028 15.7889Z" transform="translate(32.2217 8.64795)" fill="#003641"/>
<path d="M25.9278 16.843C24.5041 16.843 23.2884 16.6947 22.2806 16.3979C21.6088 16.1949 21.3368 15.7654 21.4648 15.1095L21.6328 14.1959C21.7607 13.5869 22.1287 13.2823 22.7365 13.2823C22.9445 13.2823 23.4644 13.4151 24.2962 13.6806C25.128 13.9304 25.9358 14.0554 26.7196 14.0554H26.9596C27.7914 14.0554 28.3753 13.9695 28.7112 13.7977C29.0471 13.6259 29.2551 13.3526 29.3351 12.9778C29.399 12.603 29.2791 12.3453 28.9751 12.2047C28.6712 12.0486 27.9514 11.8456 26.8156 11.5957C25.024 11.2677 23.8723 10.8304 23.3604 10.2838C22.8485 9.73725 22.7045 8.83927 22.9285 7.5899C23.1524 6.403 23.7123 5.54406 24.6081 5.01308C25.5199 4.4821 26.8716 4.21661 28.6632 4.21661H29.0231C30.3988 4.21661 31.6145 4.37278 32.6703 4.68512C33.3422 4.88815 33.6141 5.31762 33.4861 5.97353L33.3182 6.88713C33.1902 7.4962 32.8143 7.80073 32.1904 7.80073C31.9825 7.80073 31.4946 7.6758 30.7267 7.42592C29.9589 7.16043 29.1831 7.02769 28.3993 7.02769H28.2073C27.5195 7.02769 27.0316 7.09796 26.7436 7.23852C26.4557 7.37907 26.2797 7.62114 26.2157 7.96471C26.1678 8.26144 26.2477 8.48788 26.4557 8.64405C26.6796 8.78461 27.1755 8.94078 27.9434 9.11257C30.0709 9.50299 31.4386 9.9637 32.0464 10.4947C32.6543 11.01 32.8463 11.8768 32.6223 13.0949C32.3824 14.3911 31.7665 15.3438 30.7747 15.9528C29.7989 16.5463 28.3033 16.843 26.2877 16.843H25.9278Z" transform="translate(32.2217 8.64795)" fill="#003641"/>
<path d="M41.1811 16.843H40.6052C38.5097 16.843 37.054 16.5697 36.2382 16.0231C35.4224 15.4609 35.1264 14.5551 35.3504 13.3058L37.5339 1.28841C37.6299 0.648109 38.0138 0.327959 38.6857 0.327959H40.0054C40.3093 0.327959 40.5412 0.42947 40.7012 0.632492C40.8612 0.835513 40.9092 1.0932 40.8452 1.40554L40.3893 4.02921C40.3573 4.15414 40.3733 4.24785 40.4373 4.31032C40.5013 4.37278 40.6132 4.39621 40.7732 4.38059C41.4131 4.27127 42.0289 4.21661 42.6208 4.21661H42.9807C45.0442 4.21661 46.4759 4.6617 47.2757 5.55187C48.0916 6.42643 48.2995 7.98033 47.8996 10.2136L47.8036 10.8461C47.3717 13.1886 46.6839 14.7738 45.7401 15.6015C44.7963 16.4292 43.2766 16.843 41.1811 16.843ZM39.4055 13.7977C39.8054 13.907 40.3413 13.9617 41.0131 13.9617H41.3011C42.3568 13.9617 43.0927 13.743 43.5086 13.3058C43.9405 12.8685 44.2684 12.0173 44.4924 10.7524L44.5883 10.2604C44.8123 9.02667 44.7803 8.19116 44.4924 7.75388C44.2044 7.3166 43.5326 7.09796 42.4768 7.09796H42.1649C41.685 7.09796 41.0931 7.17605 40.3893 7.33222C39.9414 7.44154 39.6694 7.74607 39.5735 8.24582L38.8296 12.4859C38.7496 12.8763 38.7496 13.173 38.8296 13.376C38.9096 13.5791 39.1016 13.7196 39.4055 13.7977Z" transform="translate(32.2217 8.64795)" fill="#003641"/>
<path d="M51.8377 16.7259H50.47C50.1981 16.7259 49.9902 16.64 49.8462 16.4682C49.6862 16.2808 49.6302 16.0544 49.6782 15.7889L51.2139 7.23852C51.4058 6.22341 51.6618 5.55187 51.9817 5.22391C52.3176 4.89595 52.9415 4.63827 53.8533 4.45087C54.5731 4.2947 55.349 4.21661 56.1808 4.21661H56.3247C57.4605 4.21661 58.3003 4.28689 58.8442 4.42744C59.564 4.59923 59.868 4.98966 59.756 5.59872L59.612 6.4889C59.5 7.09796 59.1241 7.4025 58.4843 7.4025C58.3563 7.4025 58.0524 7.35565 57.5725 7.26194C57.1086 7.15262 56.6527 7.09796 56.2048 7.09796H56.1568C55.8688 7.09796 55.5249 7.13701 55.125 7.21509C54.8691 7.27756 54.6851 7.37907 54.5731 7.51962C54.4771 7.64456 54.4052 7.85539 54.3572 8.15212L52.9895 15.7889C52.9415 16.07 52.8055 16.2964 52.5816 16.4682C52.3736 16.64 52.1257 16.7259 51.8377 16.7259Z" transform="translate(32.2217 8.64795)" fill="#003641"/>
<path fill-rule="evenodd" clip-rule="evenodd" d="M14.1659 1.51777L19.9007 11.6091L18.3916 14.0736C17.3812 15.724 14.9703 15.6332 14.0705 13.9115L8.24344 2.76034L8.94952 1.51782C10.0995 -0.505921 13.0158 -0.505943 14.1659 1.51777ZM19.6633 14.8691L20.7473 13.099L22.7191 16.5686C23.8556 18.5686 22.4112 21.051 20.1108 21.051L11.0785 21.0509C11.0016 20.8039 10.8987 20.5587 10.7685 20.3182L4.66914 9.04979L7.36512 4.30543L12.7497 14.6093C14.1893 17.3641 18.0466 17.5092 19.6633 14.8691ZM9.45957 21.0507L3.00432 21.0508C0.703982 21.0509 -0.740384 18.5689 0.396203 16.5684L3.79582 10.5861L9.44935 21.0316C9.45291 21.0382 9.45612 21.0445 9.45957 21.0507Z" transform="matrix(0.236925 -0.971528 0.974034 0.226403 0.963867 23.3447)" fill="url(#paint0_linear)"/>
<defs>
<linearGradient id="paint0_linear" x2="1" gradientUnits="userSpaceOnUse" gradientTransform="matrix(18.1925 10.2176 -11.2185 20.7522 8.36386 -3.24238)">
<stop stop-color="#00A091"/>
<stop offset="1" stop-color="#7DB61C"/>
</linearGradient>
</defs>
</svg>
