<svg id="Layer_1" data-name="Layer 1" xmlns="http://www.w3.org/2000/svg" xmlns:xlink="http://www.w3.org/1999/xlink" viewBox="0 0 237.8 58.02"><defs><style>.cls-1{fill:url(#linear-gradient);}.cls-2{fill:url(#linear-gradient-2);}.cls-3{fill:url(#linear-gradient-3);}.cls-4{fill:#003641;fill-rule:evenodd;}</style><linearGradient id="linear-gradient" x1="41.42" y1="40.86" x2="21.7" y2="29.09" gradientUnits="userSpaceOnUse"><stop offset="0" stop-color="#c8d400"/><stop offset="0.32" stop-color="#c6d100"/><stop offset="0.52" stop-color="#bdc900"/><stop offset="0.68" stop-color="#b0bb00"/><stop offset="0.83" stop-color="#9ca600"/><stop offset="0.96" stop-color="#838c00"/><stop offset="1" stop-color="#798200"/></linearGradient><linearGradient id="linear-gradient-2" x1="43.78" y1="2.91" x2="43.78" y2="25.71" gradientUnits="userSpaceOnUse"><stop offset="0" stop-color="#00a295"/><stop offset="0.36" stop-color="#009f93"/><stop offset="0.57" stop-color="#00978b"/><stop offset="0.75" stop-color="#00897d"/><stop offset="0.91" stop-color="#00746a"/><stop offset="1" stop-color="#00655c"/></linearGradient><linearGradient id="linear-gradient-3" x1="9.83" y1="19.61" x2="29.34" y2="7.76" gradientUnits="userSpaceOnUse"><stop offset="0" stop-color="#7ab929"/><stop offset="0.34" stop-color="#78b628"/><stop offset="0.55" stop-color="#72ae26"/><stop offset="0.72" stop-color="#69a023"/><stop offset="0.87" stop-color="#5b8c1f"/><stop offset="1" stop-color="#4a7319"/></linearGradient></defs><title>Artboard 2</title><path class="cls-1" d="M49.29,25.85h-26l-5.1,8.83L29,53.22a3.14,3.14,0,0,0,2.62,1.39,3.2,3.2,0,0,0,2.68-1.45L50,25.85Z"/><path class="cls-2" d="M58,2.74H26.5L39.89,25.85H50L60.73,7.29a3.24,3.24,0,0,0,.32-1.36A3.21,3.21,0,0,0,58,2.74Z"/><path class="cls-3" d="M23.3,25.85l8.3-14.31-5.1-8.8H5.08a3.13,3.13,0,0,0-1.34.42,3.2,3.2,0,0,0-1.6,2.77,3.33,3.33,0,0,0,.34,1.43L18.2,34.68Z"/><path class="cls-4" d="M151.9,11.05h-.21c-10.53.1-17,8.1-17,18.12,0,9.62,5.92,17.71,16.68,17.71h.36c10.48-.14,17.05-7.22,17.05-18.28C168.74,19.34,163.07,11.05,151.9,11.05Zm-.1,28.47h-.11c-4.47,0-7.26-4.33-7.21-10.54,0-6,2.74-10.56,7.21-10.56h0c4.53,0,7.21,4.53,7.21,10.5C158.91,35.2,156.28,39.52,151.8,39.52ZM189,11.05h-.2c-10.54.1-17.05,8.1-17.05,18.12,0,9.62,5.93,17.71,16.69,17.71h.36c10.47-.14,17-7.22,17-18.28C205.81,19.34,200.15,11.05,189,11.05Zm-.1,28.47h-.1c-4.48,0-7.26-4.31-7.21-10.54,0-6,2.73-10.56,7.21-10.56S196,22.94,196,28.91C196,35.2,193.36,39.52,188.87,39.52Zm40.33-12v-.1c4.07-1.54,5.66-4.38,5.66-7.26a7.73,7.73,0,0,0-4.68-7.15c-2.28-1.14-4.77-1.57-8.5-1.68-.66,0-1.36,0-2.11,0a70.89,70.89,0,0,0-11,.76v34a52.46,52.46,0,0,0,9.17.62c1.41,0,2.72,0,3.91-.13,5.09-.34,8.32-1.38,10.4-3A9.35,9.35,0,0,0,236,36C236,31.9,233.42,28.75,229.2,27.57Zm-11.38-9.31a16.65,16.65,0,0,1,3-.22c.28,0,.56,0,.82,0,2.59.21,3.87,1.43,3.87,3.26s-1.27,3.06-3.87,3.47a15,15,0,0,1-2,.14h-1.85Zm3.86,21.61a11.37,11.37,0,0,1-1.18.06,19.7,19.7,0,0,1-2.68-.1V31.54H220a12.45,12.45,0,0,1,1.65.09c2.66.33,4.54,1.52,4.54,4C226.22,38.29,224.23,39.58,221.68,39.87ZM92.12,11.63V46.31h9.32v-29C101.44,12.94,99.07,11.63,92.12,11.63ZM78.58,25.31c-4.38-1.64-6.24-2.32-6.24-4.07,0-1.53,1.55-2.57,4.38-2.57a19.33,19.33,0,0,1,7.52,1.65c1.31-3.56,2.06-9.22-7.42-9.22-8.75,0-13.95,4.74-13.95,10.87,0,5.15,3.91,8.34,9.78,10.44,3.91,1.35,5.46,2.28,5.46,4s-1.55,2.82-4.74,2.82a20.73,20.73,0,0,1-9-2.16l-1.76,7.67a24.44,24.44,0,0,0,10.2,2.12c10.14,0,14.78-5.1,14.78-11.07C87.58,30.93,84.81,27.63,78.58,25.31Zm47.21,13.8c-6.38,0-10.14-3.93-10.14-10.2,0-7.06,4.63-10.19,9.94-10.19A17.55,17.55,0,0,1,132,20c1.63-3.75,1.23-8.85-6.85-8.85-10.36,0-19.31,6.22-19.31,18.42,0,9.23,5.71,17.31,18.69,17.31a22.07,22.07,0,0,0,8.7-1.44L132,38.13A19.16,19.16,0,0,1,125.79,39.11Z"/></svg>